<svg xmlns:dc="http://purl.org/dc/elements/1.1/" xmlns:cc="http://creativecommons.org/ns#" xmlns:rdf="http://www.w3.org/1999/02/22-rdf-syntax-ns#" xmlns:svg="http://www.w3.org/2000/svg" xmlns="http://www.w3.org/2000/svg" xmlns:sodipodi="http://sodipodi.sourceforge.net/DTD/sodipodi-0.dtd" xmlns:inkscape="http://www.inkscape.org/namespaces/inkscape" viewBox="0 0 12.7 15.875" version="1.1" x="0px" y="0px"><g transform="translate(0,-284.29998)"><g transform="translate(2112.6708,-348.27134)"><path d="m -2105.5063,642.21711 a 0.6068,0.6068 0 1 0 -1.2136,0 0.6068,0.6068 0 1 0 1.2136,0 z" style="" fill="#8298A0" stroke="none"/><path d="m -2106.6504,641.65147 a 0.71861325,0.71861325 0 0 0 -0.8383,-0.0924 0.56698275,0.56698275 0 0 1 1.1202,-0.0791 0.78013912,0.78013912 0 0 0 -0.2819,0.17151 z" style="" fill="#8298A0" stroke="none"/><path d="m -2106.7227,633.937 a 1.9363867,1.9363867 0 0 0 -0.1991,1.93282 1.0689483,1.0689483 0 0 1 0.055,0.15401 5.8068633,5.8068633 0 0 1 0.1684,2.24434 h -0.5916 a 2.1278721,2.1278721 0 0 0 0.09,-0.67625 l -0.1733,0.007 a 1.9545291,1.9545291 0 0 1 -0.1654,0.84426 h 0.3051 v 1.07386 a 1.2958153,1.2958153 0 0 0 -0.8395,-0.0266 l 0.4603,-3.40361 -0.1718,-0.0238 -0.5022,3.71443 a 1.1224723,1.1224723 0 0 1 1.2265,0.0231 v -1.35738 h 0.5134 a 5.9802063,5.9802063 0 0 0 -0.153,-2.46345 1.2422913,1.2422913 0 0 0 -0.064,-0.17852 1.7630437,1.7630437 0 0 1 0.1813,-1.7599 z" style="" fill="#8298A0" stroke="none"/><path d="m -2104.2538,637.30351 a 3.7656107,3.7656107 0 0 1 -1.3445,-0.23032 13.549889,13.549889 0 0 0 -0.3821,-3.13549 1.0689483,1.0689483 0 0 1 -0.011,-0.45153 1.4446937,1.4446937 0 0 1 0.1318,-0.38572 2.0792244,2.0792244 0 0 0 0.9844,0.76585 0.73402134,0.73402134 0 0 1 0.5197,0.56493 h -0.7127 v 0.17291 h 0.8664 l 0.7624,0.21701 a 0.20223346,0.20223346 0 0 1 0.1402,0.14351 0.49132098,0.49132098 0 0 1 -0.1097,0.45293 h -0.2801 a 0.43609599,0.43609599 0 0 1 -0.5214,0.54043 0.78921056,0.78921056 0 0 0 -0.8464,-0.81695 l -0.2209,-0.18761 -0.1123,0.13161 0.279,0.23732 a 0.61586759,0.61586759 0 0 1 0.7252,0.54883 0.43609599,0.43609599 0 0 1 -0.016,-0.014 0.44439066,0.44439066 0 1 0 -0.2983,0.77355 h 0.4427 a 0.33637722,0.33637722 0 0 1 0,0.67274 z" style="" fill="#8298A0" stroke="none"/><path d="m -2104.6461,641.29305 a 1.2422913,1.2422913 0 0 0 0.1133,0.37032 2.1410095,2.1410095 0 1 1 -4.0657,0.93806 v -2.27934 h -0.564 l -0.1959,-0.39132 a 1.4608357,1.4608357 0 0 0 0.7187,-1.40709 h -0.4592 l 0.5752,-1.25728 h -0.5442 a 3.5863879,3.5863879 0 0 0 0.497,-1.6724 2.3163448,2.3163448 0 0 1 0.9448,-1.82431 v -0.45433 l 0.4123,0.21281 a 2.3163448,2.3163448 0 0 1 1.0822,-0.20441 1.6180366,1.6180366 0 0 0 -0.03,0.13021 1.2422913,1.2422913 0 0 0 0.013,0.52503 13.376547,13.376547 0 0 1 0.2875,4.70149 1.3378821,1.3378821 0 0 1 -0.2175,0.59854 l -0.488,-0.46483 -0.1195,0.12531 0.6271,0.59713 a 1.5112252,1.5112252 0 0 0 0.3701,-0.83655 13.549889,13.549889 0 0 0 0.09,-1.44279 3.9389536,3.9389536 0 0 0 0.6591,0.16731 v 0.92406 a 1.7844395,1.7844395 0 0 0 -0.1461,0.17291 5.6052168,5.6052168 0 0 0 -0.5661,1.98812 1.0595098,1.0595098 0 0 0 -1.7892,0.55934 0.74032571,0.74032571 0 0 0 -0.2163,0.62304 0.71861325,0.71861325 0 0 0 -0.1251,0.79945 l 0.1566,-0.0742 a 0.54527028,0.54527028 0 0 1 0.8638,-0.63354 0.78013912,0.78013912 0 1 0 0.5627,-0.34232 0.74032571,0.74032571 0 0 0 -1.0169,-0.52293 0.88616679,0.88616679 0 0 1 1.5622,-0.13791 0.08667148,0.08667148 0 0 0 0.1594,-0.0427 5.4318738,5.4318738 0 0 1 0.5571,-2.12533 1.6110965,1.6110965 0 0 1 1.6231,-0.60414 3.5327231,3.5327231 0 0 0 -1.3316,3.2846 z" style="" fill="#8298A0" stroke="none"/></g></g></svg>